<svg xmlns="http://www.w3.org/2000/svg" viewBox="0 0 799.64 799.64"><defs><style>.cls-1{fill:#bdea50;}.cls-2{fill:#fff;}</style></defs><g id="Слой_2" data-name="Слой 2"><g id="Слой_1-2" data-name="Слой 1"><path class="cls-1" d="M130.93,294.56h84.44q37.17,0,58.27,13.59t21.11,41.93q0,17.35-7.51,28.77T268.87,394v.57q13.45,3.92,22.56,16.56t9.11,33.33q0,28.77-22.34,44.68t-58.78,15.9H130.93Zm83,84.29q13.88,0,20-6.14t6.15-17.28q0-11.28-6.15-17.35t-20-6.07H185.88v46.84Zm4,89.22q14,0,20.67-7.38t6.66-20.24q0-12.43-6.66-19.81T218,413.27h-32.1v54.8Z"/><path class="cls-1" d="M324.15,294.56H472.36v40.92H379v41.35H459.2v40.05H379v47.57h95v40.63H324.15Z"/><path class="cls-1" d="M494.77,294.56H668.71v40.92H609.57v169.6H554.05V335.48H494.77Z"/><path class="cls-2" d="M399.82,799.64A399.91,399.91,0,0,1,244.19,31.43,399.7,399.7,0,0,1,799.64,399.82a404.25,404.25,0,0,1-5,63.72l-45.51-7.29a357.52,357.52,0,0,0,4.48-56.43A353.74,353.74,0,0,0,149.69,149.69,353.74,353.74,0,0,0,399.82,753.56Z"/><path class="cls-1" d="M427.23,775q-1.62-11.29,3.45-17.71t14.81-7.81q9-1.28,15,2.53a15.38,15.38,0,0,1,7.1,11.42l.15,1-12.25,1.75-.18-1.27c-.37-2.65-1.28-4.48-2.71-5.5s-3.44-1.35-6-1a8.33,8.33,0,0,0-6.06,3.47q-2,2.88-1,9.55l.89,6.31q.89,6.18,3.54,8.67t7.14,1.85q3.75-.52,5.28-2.79a8.51,8.51,0,0,0,1.07-6l-.16-1.13,12.24-1.74.16,1.13A15.66,15.66,0,0,1,466,790.62q-4.65,5.32-13.68,6.61-9.81,1.39-16.44-3.44t-8.21-16Z"/><path class="cls-1" d="M483.33,743.31l13-3.42,29.37,40.44-12.82,3.36-19-27.4a14,14,0,0,1-1.08-1.82q-.43-.91-.84-1.83l-.24.07c.08.66.14,1.32.18,2a15.31,15.31,0,0,1-.06,2.12l-3,33.18-10.73,2.82Zm4,28.81,19-5L511,774.9l-23.89,6.28Z"/><path class="cls-1" d="M517.79,733.48,529.14,729l13.8,34.75,17.86-7.09,3.33,8.38-29.21,11.6Z"/><path class="cls-1" d="M561.53,739.22q-5.44-10-2.95-17.81t11.16-12.48q8-4.35,15-2.88a15.34,15.34,0,0,1,10.64,8.22l.5.92L585,721.1l-.61-1.12c-1.28-2.35-2.77-3.76-4.47-4.21s-3.69-.06-6,1.19a8.39,8.39,0,0,0-4.47,5.36q-.86,3.4,2.36,9.32l3.05,5.6q3,5.49,6.34,6.89c2.24.94,4.68.68,7.33-.76,2.23-1.21,3.55-2.69,4-4.46a8.49,8.49,0,0,0-1.08-6l-.55-1L601.75,726l.54,1a15.61,15.61,0,0,1,1,13.31q-2.49,6.63-10.5,11-8.71,4.73-16.61,2.52T562.9,741.74Z"/><path class="cls-1" d="M592.69,696.85l9.84-7.19L619.58,713c2.2,3,4.19,4.64,6,4.9a7.91,7.91,0,0,0,8.34-6.12c.3-1.81-.64-4.2-2.82-7.19L614,681.26l9.53-7,16.52,22.62q6,8.25,4.28,15.16a22.59,22.59,0,0,1-22,16.06q-7.12-.43-13.15-8.67Z"/><path class="cls-1" d="M630.88,667.82l8.92-8.33,25.53,27.31,14-13.12,6.16,6.59-23,21.46Z"/><path class="cls-1" d="M666.1,632.26,674.74,622l47.34,16-8.52,10.16L682.2,636.77a12.35,12.35,0,0,1-1.94-.87l-1.74-1-.16.19c.45.49.88,1,1.3,1.53a14.57,14.57,0,0,1,1.18,1.76l16.75,28.81-7.13,8.5ZM686,653.48l12.59-15,8.33,3.61L691.05,661Z"/><path class="cls-1" d="M684.25,610.67l21.15-32,7.53,5-7.2,10.88,31.19,20.62-6.75,10.21L699,604.75l-7.21,10.9Z"/><path class="cls-1" d="M727.24,584.61q-10.18-5-12.62-12.92t1.78-16.47q4.19-8.52,12-11.49t18,2l2.58,1.27q10.19,5,12.58,13t-1.8,16.51q-4.2,8.55-12,11.45t-17.93-2.11Zm19-7.39a8.25,8.25,0,0,0,5.41-4.67,8.54,8.54,0,0,0,.45-7.24q-1.41-3.46-7.33-6.38l-5.23-2.57q-6-2.93-9.54-1.92a8.53,8.53,0,0,0-5.44,4.78,8.26,8.26,0,0,0-.42,7.13q1.42,3.39,7.38,6.31l5.23,2.58Q742.64,578.15,746.2,577.22Z"/><path class="cls-1" d="M729.72,528.26l5.77-17.16q2.75-8.13,8-11.5t12.34-1Q763,501,765.29,507t-.47,14L763,526.55l14.66,4.93-3.89,11.57Zm26.72-9.55q1.14-3.37,0-5.4a7.54,7.54,0,0,0-4.33-3.12,7.06,7.06,0,0,0-5.23-.11q-2.05,1-3.19,4.35L742,519.5l12.75,4.29Zm1.5,4.14,4-12.53,24-3.74-4.36,13Z"/></g></g></svg>